<?xml version="1.0" encoding="utf-8"?>
<!-- Generator: Adobe Illustrator 25.4.1, SVG Export Plug-In . SVG Version: 6.00 Build 0)  -->
<svg version="1.1" id="图层_1" xmlns="http://www.w3.org/2000/svg" xmlns:xlink="http://www.w3.org/1999/xlink" x="0px" y="0px"
	 viewBox="0 0 1024 1024" style="enable-background:new 0 0 1024 1024;" xml:space="preserve">
<style type="text/css">
	.st0{clip-path:url(#SVGID_00000023266649815620138750000016505324133004374176_);}
	.st1{fill:url(#SVGID_00000012451388096501108160000002391425287562520981_);}
	.st2{fill:url(#SVGID_00000031171924283231463470000005126196190209851326_);}
	.st3{fill:url(#SVGID_00000034088865281428861390000017755970924336214402_);}
	.st4{fill:url(#SVGID_00000013881905969924802280000013833175703584602784_);}
	.st5{fill-rule:evenodd;clip-rule:evenodd;fill:url(#SVGID_00000114755554794509240650000015089697458863603343_);}
	.st6{fill:url(#SVGID_00000151506385336241318970000008121694084233625756_);}
	.st7{fill:url(#SVGID_00000048463164685828512420000011106493703608756614_);}
	.st8{fill-rule:evenodd;clip-rule:evenodd;fill:#6CB8FF;}
	.st9{fill:none;stroke:url(#SVGID_00000028317329579426777340000002135852753544353167_);stroke-width:2;stroke-dasharray:2,2;}
	.st10{fill:url(#SVGID_00000026151556170311710930000014661970383347046529_);}
	.st11{fill:url(#SVGID_00000112606613368280045310000006706741807450933924_);}
	.st12{fill-rule:evenodd;clip-rule:evenodd;fill:url(#SVGID_00000124135094989400346760000010758244138772162985_);}
	.st13{fill:url(#SVGID_00000047752771012852597340000014668445232065452201_);}
</style>
<g>
	<defs>
		<rect id="SVGID_1_" width="1024" height="1024"/>
	</defs>
	<clipPath id="SVGID_00000044136910935538736160000014052325708340258957_">
		<use xlink:href="#SVGID_1_"  style="overflow:visible;"/>
	</clipPath>
	<g style="clip-path:url(#SVGID_00000044136910935538736160000014052325708340258957_);">
		
			<linearGradient id="SVGID_00000150819577621435010380000006524313546289461429_" gradientUnits="userSpaceOnUse" x1="506" y1="389" x2="506" y2="134" gradientTransform="matrix(1 0 0 -1 0 1024)">
			<stop  offset="0" style="stop-color:#BDDFFF"/>
			<stop  offset="0.9589" style="stop-color:#FFFFFF;stop-opacity:0"/>
		</linearGradient>
		
			<ellipse style="fill:url(#SVGID_00000150819577621435010380000006524313546289461429_);" cx="506" cy="762.5" rx="467" ry="127.5"/>
		
			<linearGradient id="SVGID_00000064347884369155667840000013721927243778507145_" gradientUnits="userSpaceOnUse" x1="229.6643" y1="269.3315" x2="229.6643" y2="408.7443" gradientTransform="matrix(1 0 0 -1 0 1024)">
			<stop  offset="0" style="stop-color:#5FB2FF"/>
			<stop  offset="0.7893" style="stop-color:#DFF0FF"/>
		</linearGradient>
		<path style="fill:url(#SVGID_00000064347884369155667840000013721927243778507145_);" d="M230.5,615.5c0,0-0.2-0.6-0.5,0
			c-2.7,5.6-27.6,66-29.6,112.7c0,0-4.1,26.8,30.6,26.4c29-0.3,28.2-25,28.1-33.3C258.7,687.6,230.5,615.5,230.5,615.5z"/>
		
			<linearGradient id="SVGID_00000149384054154644524640000000757734684231843253_" gradientUnits="userSpaceOnUse" x1="229.6635" y1="393.263" x2="229.6635" y2="239.657" gradientTransform="matrix(1 0 0 -1 0 1024)">
			<stop  offset="0" style="stop-color:#DFF0FF"/>
			<stop  offset="0.818" style="stop-color:#A2D2FF"/>
		</linearGradient>
		<path style="fill:url(#SVGID_00000149384054154644524640000000757734684231843253_);" d="M229.7,784.3c-0.6,0-1-0.5-1-1V631.8
			c0-0.6,0.5-1,1-1s1,0.5,1,1v151.6C230.7,783.9,230.2,784.3,229.7,784.3z"/>
		
			<linearGradient id="SVGID_00000178193697030570740310000010922528566923498681_" gradientUnits="userSpaceOnUse" x1="884.0164" y1="303.8588" x2="847.7084" y2="220.9328" gradientTransform="matrix(1 0 0 -1 0 1024)">
			<stop  offset="0.3652" style="stop-color:#C4E3FF"/>
			<stop  offset="1" style="stop-color:#5FB2FF"/>
		</linearGradient>
		<path style="fill:url(#SVGID_00000178193697030570740310000010922528566923498681_);" d="M869.3,810.7c7.2-2.3,14.2-5.2,20.5-13.5
			c1.3-1.7,2.5-3.9,1.8-5.9c-0.5-1.5-2.1-2.5-3.7-2.8c-0.6-0.1-1.2-0.1-1.8,0h0c-0.9,0.1-1.8,0.3-2.7,0.5l-0.3,0.1
			c-4.2,1.2-8.2,3-11.9,5.4c-0.3,0.2-0.7,0.3-1.1,0.3c-0.4,0-0.8-0.2-1-0.5c-0.3-0.3-0.5-0.6-0.5-1c-0.1-0.4,0-0.8,0.2-1.1
			c0.4-0.6,0.8-1.2,1.3-1.7c0.7-0.8,1.5-1.5,2.4-2.1c1.1-0.8,2.3-1.6,3.5-2.3c4.4-2.8,8.5-6,12.4-9.5c2.8-2.5,5.5-5.3,6.8-8.8
			c0.6-1.6,0.9-3.5,0.2-5.1c-1.2-2.6-4.6-3.3-7.3-2.8c-4.8,0.9-8.7,4.5-12.1,8.1c-2.8,3-6,6.3-10.1,6.5c-0.7,0.1-1.4-0.1-2-0.4
			c-1.2-0.7-1.5-2.4-1-3.7c0.4-1.3,1.4-2.4,2.3-3.4c5.4-5.9,10.7-12,14.2-19.2c3.5-7.2,5.1-15.7,2.6-23.3c-0.7-2.2-1.8-4.4-3.5-6
			c-1.7-1.6-4-2.6-6.3-2.3c-3.1,0.4-5.5,3.1-7.1,5.9c-5.4,9.5-5.1,21.1-6.6,32c-0.4,3-1.1,6.2-2.8,8.7c-0.2,0.2-0.4,0.4-0.6,0.6
			c-1.5,0.9-2.8-0.9-3.3-2.4c-2.2-5.8-2.7-12.5-6.6-17.4c-1.5-1.8-3.6-3.4-5.9-3.4c-2.9,0-5.3,2.4-6.2,5.2c-0.8,2.8-0.3,5.8,0.6,8.6
			c1.7,5.1,4.6,9.7,8.2,13.8c1.9,2.1,3.9,4.3,4.5,7.1c0.2,0.9,0.1,1.9-0.2,2.8c-0.3,0.9-0.8,1.7-1.5,2.4c-0.3,0.3-0.7,0.5-1.1,0.6
			c-0.4,0.1-0.9,0.2-1.3,0.2c-0.9-0.1-1.8-0.6-2.6-1c-0.3-0.2-0.7-0.4-1-0.6c-1.4-0.8-2.7-1.6-4.1-2.4c-3.5-2-7.7-4.1-11.3-2.3
			c-1.9,0.9-3.1,2.6-3.6,4.6c-0.5,1.8-0.5,3.7,0,5.6c1.1,3.8,7.9,14.3,10.7,17C833.4,804.7,844.7,818.4,869.3,810.7z"/>
		
			<linearGradient id="SVGID_00000030466547724314666520000004261291976512581796_" gradientUnits="userSpaceOnUse" x1="536.8533" y1="426.4415" x2="482.7233" y2="269.9935" gradientTransform="matrix(1 0 0 -1 0 1024)">
			<stop  offset="0" style="stop-color:#C9E7FF"/>
			<stop  offset="1" style="stop-color:#B0D9FF"/>
		</linearGradient>
		<path style="fill-rule:evenodd;clip-rule:evenodd;fill:url(#SVGID_00000030466547724314666520000004261291976512581796_);" d="
			M746,643H280v45v2h0.4c7.5,16.7,108.8,30,232.6,30s225-13.3,232.6-30h0.4v-2V643z"/>
		
			<linearGradient id="SVGID_00000054980481568393154780000002159915316410141348_" gradientUnits="userSpaceOnUse" x1="517.2478" y1="420.3632" x2="510.1267" y2="354.3742" gradientTransform="matrix(1 0 0 -1 0 1024)">
			<stop  offset="0" style="stop-color:#6CB8FF"/>
			<stop  offset="0.6568" style="stop-color:#8FC8FF"/>
		</linearGradient>
		<ellipse style="fill:url(#SVGID_00000054980481568393154780000002159915316410141348_);" cx="513" cy="643" rx="233" ry="32"/>
		
			<linearGradient id="SVGID_00000152957752383986288240000006053939985235738294_" gradientUnits="userSpaceOnUse" x1="517.2478" y1="420.3632" x2="510.1267" y2="354.3742" gradientTransform="matrix(1 0 0 -1 0 1024)">
			<stop  offset="0" style="stop-color:#6CB8FF"/>
			<stop  offset="0.6568" style="stop-color:#8FC8FF"/>
		</linearGradient>
		<ellipse style="fill:url(#SVGID_00000152957752383986288240000006053939985235738294_);" cx="513" cy="643" rx="233" ry="32"/>
		<path class="st8" d="M715.3,659.9C675.2,669.5,599.6,676,513,676c-85.8,0-160.8-6.4-201.2-15.9c5.9-17.4,94-31.1,201.8-31.1
			C620.9,629,708.6,642.6,715.3,659.9z"/>
		
			<linearGradient id="SVGID_00000021109740931732887540000016362005795464471723_" gradientUnits="userSpaceOnUse" x1="515.7141" y1="753.2192" x2="474.015" y2="597.1363" gradientTransform="matrix(1 0 0 -1 0 1024)">
			<stop  offset="0" style="stop-color:#8DAFCE"/>
			<stop  offset="0.6568" style="stop-color:#ABD6FF"/>
		</linearGradient>
		
			<path style="fill:none;stroke:url(#SVGID_00000021109740931732887540000016362005795464471723_);stroke-width:2;stroke-dasharray:2,2;" d="
			M675,291c-16.7-12.3-97.4-32.8-141,24c-54.5,71-110.5,142.5-221.5,99"/>
		
			<linearGradient id="SVGID_00000078033366580424979420000013618407376918167426_" gradientUnits="userSpaceOnUse" x1="612.0873" y1="661.0412" x2="388.7444" y2="457.3912" gradientTransform="matrix(1 0 0 -1 0 1024)">
			<stop  offset="0.1933" style="stop-color:#B0D8FF"/>
			<stop  offset="0.7766" style="stop-color:#B1D9FF"/>
		</linearGradient>
		<path style="fill:url(#SVGID_00000078033366580424979420000013618407376918167426_);" d="M646.6,347.6L512.5,305l-134.1,42.6
			c-5,1.6-8.4,6.3-8.4,11.6v169.5c0.3,1.2,6.6,29.1,34,56.1c21.1,20.8,71.7,47.5,93.7,59.1c3.4,1.8,5.1,2.5,6.5,3.3l6.5,3.3
			c1.7,0.9,4.8,0.9,6.5,0l6.5-3.3c12.9-6.3,72.7-38.3,97-62.3c27.5-27,33.8-54.9,34-56.1V359.2C655.1,353.9,651.6,349.2,646.6,347.6
			L646.6,347.6z M514.2,624.1L514.2,624.1l0.1,0C514.2,624.1,514.2,624.1,514.2,624.1z M546.1,525.6h-21.7v30.5
			c0,7.1-5.7,12.8-12.8,12.8s-12.8-5.7-12.8-12.8v-78.7c0-0.3,0-0.5,0-0.7c-2.3-0.7-4.7-1.6-7-2.6c-7.9-3.6-14.7-10.1-19.2-17.5
			c-4.7-7.7-7.2-17.3-6.4-26.4c0.9-10.3,4.6-19.3,11.2-27.3c11.4-13.8,32.4-19.5,49.2-13.3c9.5,3.5,17.2,9.3,23.1,17.6
			c5.1,7.2,7.7,16.2,8,25c0,0.3,0,0.5,0,0.8c0,0.3,0,0.6,0,0.9c-0.6,19.5-14.1,38-33.2,43.1v22.5h21.7c7.1,0,12.8,5.7,12.8,12.8v0.5
			h0C559,519.9,553.2,525.6,546.1,525.6L546.1,525.6z"/>
		
			<linearGradient id="SVGID_00000179640806424177556420000009107043852008349374_" gradientUnits="userSpaceOnUse" x1="521.2462" y1="607.9213" x2="503.6902" y2="576.4503" gradientTransform="matrix(1 0 0 -1 0 1024)">
			<stop  offset="0" style="stop-color:#6CB8FF"/>
			<stop  offset="0.6568" style="stop-color:#8FC8FF"/>
		</linearGradient>
		<path style="fill:url(#SVGID_00000179640806424177556420000009107043852008349374_);" d="M527.2,444.6c0.1-0.2,0.3-0.4,0.3-0.4
			c0.8-1.2,1.5-2.4,2.1-3.6c0.6-1.6,1-3.3,1.4-5c0-0.8,0.1-1.7,0.1-2.6c0-0.8,0-1.7-0.1-2.6c-0.3-1.7-0.8-3.4-1.4-5
			c-0.5-1-1.1-2.1-1.7-3.1c-0.1-0.1-0.4-0.6-1-1.4c-0.5-0.5-1-1.1-1.5-1.6c-0.6-0.6-1.3-1.2-2-1.8c-0.2-0.1-0.4-0.3-0.4-0.3
			c-1.2-0.8-2.4-1.5-3.6-2.1c-1.6-0.6-3.3-1-5-1.4c-1.7-0.1-3.4-0.1-5.2,0c-1.7,0.3-3.4,0.8-5,1.4c-1,0.5-2.1,1.1-3.1,1.7
			c-0.1,0.1-0.6,0.4-1.4,1c-0.5,0.5-1.1,1-1.6,1.5c-0.6,0.6-1.2,1.3-1.8,2c-0.1,0.2-0.3,0.4-0.3,0.4c-0.8,1.2-1.5,2.4-2.1,3.6
			c-0.6,1.6-1,3.3-1.4,5c-0.1,1.7-0.1,3.4,0,5.2c0.3,1.7,0.8,3.4,1.4,5c0.5,1.1,1.1,2,1.7,3.1c0.1,0.1,0.4,0.6,1,1.4
			c0.5,0.5,1,1.1,1.5,1.6c0.6,0.6,1.3,1.2,2,1.8c0.2,0.1,0.4,0.3,0.4,0.3c1.1,0.8,2.4,1.5,3.6,2.1c1.6,0.6,3.3,1,5,1.4
			c1.7,0.1,3.5,0.1,5.2,0c1.7-0.3,3.4-0.8,5-1.4c1.1-0.5,2-1.1,3.1-1.7c0.1-0.1,0.6-0.4,1.4-1c0.6-0.4,1.1-0.9,1.6-1.5
			C526.1,445.9,526.7,445.3,527.2,444.6L527.2,444.6z"/>
		
			<linearGradient id="SVGID_00000003101385178565624500000014405804014166047158_" gradientUnits="userSpaceOnUse" x1="294.2139" y1="737.7056" x2="252.4769" y2="673.5356" gradientTransform="matrix(1 0 0 -1 0 1024)">
			<stop  offset="0" style="stop-color:#6CB8FF"/>
			<stop  offset="0.6568" style="stop-color:#8FC8FF"/>
		</linearGradient>
		<path style="fill-rule:evenodd;clip-rule:evenodd;fill:url(#SVGID_00000003101385178565624500000014405804014166047158_);" d="
			M283.6,300.7l4.4-1.9c2.4-1.1,5.3,0,6.3,2.4l15.4,35.1c1,2.4-0.1,5.2-2.5,6.3l-48.1,21.1c-2.4,1-5.2-0.1-6.3-2.4l-15.4-35.1
			c-1-2.4,0.1-5.2,2.4-6.3l4.4-1.9l-3.8-8.8c-4.8-11,0.1-23.6,11-28.4c11-4.8,23.6,0.1,28.4,11.1L283.6,300.7z M250.8,315.1
			l26.3-11.5l-3.8-8.8c-1.5-3.5-4.4-6.2-7.9-7.6c-3.5-1.4-7.5-1.3-11,0.2c-7.2,3.2-10.5,11.7-7.3,18.9L250.8,315.1z M273.7,340.6
			c5,0,9-4,9-9c0-5-4-9-9-9c-5,0-9,4-9,9C264.7,336.6,268.8,340.6,273.7,340.6z"/>
		
			<linearGradient id="SVGID_00000050658723733841326470000012991822587392069016_" gradientUnits="userSpaceOnUse" x1="729.978" y1="716.3885" x2="683.6741" y2="722.9165" gradientTransform="matrix(1 0 0 -1 0 1024)">
			<stop  offset="0" style="stop-color:#6CB8FF"/>
			<stop  offset="0.6568" style="stop-color:#8FC8FF"/>
		</linearGradient>
		<path style="fill:url(#SVGID_00000050658723733841326470000012991822587392069016_);" d="M736,316.6l-42.5,8.8
			c-0.5,0.1-1,0-1.5-0.4c-0.2-0.2-0.4-0.4-0.5-0.7c-0.1-0.2-0.1-0.4-0.1-0.7l0.2-12.5c0-0.7-0.4-1.3-1.1-1.5l-9-3
			c-0.5-0.2-0.9-0.5-1.1-1c-0.1-0.2-0.1-0.4-0.1-0.6c0-0.4,0.1-0.7,0.3-1c0.2-0.3,0.5-0.5,0.8-0.7l8-3.1c0.7-0.3,1.4-0.3,2.1-0.1
			l35.2,11.5l-34.4-18.3c-0.3-0.1-0.4-0.4-0.4-0.7l0.2-11.4c0-0.7,0.3-1.3,1-1.6c0.7-0.3,1.3-0.2,1.9,0.2l41.7,33.6
			c0.3,0.2,0.4,0.4,0.6,0.7c0.1,0.3,0.2,0.7,0.1,1.1C737.2,316,736.7,316.5,736,316.6z"/>
	</g>
</g>
</svg>
