<?xml version="1.0" encoding="utf-8"?>
<!-- Generator: Adobe Illustrator 25.4.1, SVG Export Plug-In . SVG Version: 6.00 Build 0)  -->
<svg version="1.1" id="图层_1" xmlns="http://www.w3.org/2000/svg" xmlns:xlink="http://www.w3.org/1999/xlink" x="0px" y="0px"
	 viewBox="0 0 385.1 305.5" style="enable-background:new 0 0 385.1 305.5;" xml:space="preserve">
<style type="text/css">
	.st0{opacity:0.28;}
	.st1{fill:#CDE9F9;}
	.st2{opacity:0.46;}
	.st3{fill:#AECFDC;}
	.st4{fill:#7CCAF1;}
	.st5{fill:url(#SVGID_1_);}
	.st6{fill:#17A1DB;}
	.st7{fill:#E7F6FD;}
	.st8{fill:url(#SVGID_00000167355920451870645630000016064908130616986277_);}
	.st9{fill:#FFFFFF;}
	.st10{fill:url(#SVGID_00000127003148108606481830000005791719183507987641_);}
	.st11{fill:#BD8AAE;}
	.st12{fill:#306097;}
	.st13{fill:#3C7FBE;}
	.st14{fill:url(#SVGID_00000121962822315731715440000008046788027515753092_);}
	.st15{fill:#222457;}
	.st16{fill:url(#SVGID_00000108268645275393382220000014254583533255886246_);}
	.st17{fill:#2A2F6D;}
	.st18{fill:url(#SVGID_00000042727196470373306200000000788489400050031294_);}
	.st19{fill:#FDFEFE;}
	.st20{opacity:0.5;}
	.st21{fill:url(#SVGID_00000084515147431354121560000001991873381944631721_);}
	.st22{fill:url(#SVGID_00000112602664877013520810000008701366030752913838_);}
	.st23{fill:url(#SVGID_00000020387861940180197990000005055585758277383611_);}
	.st24{fill:url(#SVGID_00000015355056635671862040000001966408179141856438_);}
	.st25{fill:url(#SVGID_00000078030390841101711220000010172666423261284484_);}
	.st26{fill:url(#SVGID_00000041998846129886606540000007486633999322555265_);}
	.st27{fill:url(#SVGID_00000002361351546866338950000007042641473989718180_);}
	.st28{fill:url(#SVGID_00000154413381606375939450000010615559287925905341_);}
	.st29{fill:url(#SVGID_00000042730565788283229230000003732814834320346026_);}
	.st30{fill:url(#SVGID_00000107549169639923680990000008657390263553688251_);}
</style>
<g id="图层_2_00000036250329369548533240000003954471107815203748_">
	<g id="图层_1-2">
		<g id="sideflooring">
			<g class="st0">
				<path class="st1" d="M210.3,302.9L73.6,233.1c-3.1-1.4-4.6-5.1-3.2-8.2c0.6-1.4,1.8-2.6,3.2-3.2l151.7-77.4
					c5.1-2.6,11.2-2.6,16.4,0l139.8,71c5,2.5,5,8.9,0,11.4l-149.2,76.2C225.3,306.4,217.2,306.4,210.3,302.9z"/>
			</g>
			<g class="st2">
				<path class="st1" d="M73.9,111.6L5.8,146.3c-2.6,1.3-5.8-0.3-5.8-3v-18.6c0-1.3,0.8-2.5,1.9-3L70,87.1c2.6-1.3,5.8,0.3,5.8,3
					v18.6C75.8,110,75,111.1,73.9,111.6z"/>
			</g>
			<g class="st2">
				<path class="st1" d="M158,82.9l-68.1,34.7c-2.6,1.3-5.8-0.3-5.8-3V96c0-1.3,0.8-2.5,1.9-3l68.1-34.7c2.6-1.3,5.8,0.3,5.8,3v18.6
					C159.9,81.2,159.1,82.3,158,82.9z"/>
			</g>
			<g class="st2">
				<path class="st1" d="M164.3,45.3L96.3,80c-2.6,1.3-5.8-0.3-5.8-3V58.4c0-1.3,0.8-2.5,1.9-3l68.1-34.6c2.6-1.3,5.8,0.3,5.8,3
					v18.6C166.2,43.6,165.5,44.8,164.3,45.3z"/>
			</g>
		</g>
		<g id="gradientbg">
			<path class="st1" d="M367.8,92v137c-0.1,2.5-1.5,4.7-3.8,5.8l-9.1,4.5l-2.1-128.5l-0.3-15.3l-172-90.1l8.4-4.3
				c2.8-1.4,6.2-1.4,9,0l165.7,84.6c1.4,0.7,2.6,1.9,3.4,3.3C367.6,89.9,367.8,91,367.8,92z"/>
			<path class="st3" d="M367.8,92v137c-0.1,2.5-1.5,4.7-3.8,5.8l-9.1,4.5l-2.1-128.5V96.1l14.3-7.1C367.6,89.9,367.8,91,367.8,92z"
				/>
			<path class="st4" d="M180.6,145.7V5.4l168.6,86.1c3.4,1.6,5.7,5,5.8,8.8v139l-169.8-86.5C182.4,151.5,180.6,148.7,180.6,145.7z"
				/>
			
				<linearGradient id="SVGID_1_" gradientUnits="userSpaceOnUse" x1="180.55" y1="1027.98" x2="354.91" y2="1027.98" gradientTransform="matrix(1 0 0 1 0 -905.67)">
				<stop  offset="0" style="stop-color:#21409A"/>
				<stop  offset="1" style="stop-color:#29ABE2;stop-opacity:0"/>
			</linearGradient>
			<path class="st5" d="M180.6,145.7V5.4l168.6,86.1c3.4,1.6,5.7,5,5.8,8.8v139l-169.8-86.5C182.4,151.5,180.6,148.7,180.6,145.7z"
				/>
		</g>
		<g id="data">
			<path class="st6" d="M189.7,112.2l39.6,20.2c1.7,0.8,2.9,2.5,2.9,4.4v0.1c0,1.6-1.9,2.6-3.5,1.8l-39.5-20.2
				c-1.3-0.6-2.1-1.9-2.2-3.3v-1.6c0.1-1,1-1.8,2-1.7C189.2,112,189.5,112.1,189.7,112.2z"/>
			<path class="st7" d="M189.7,121.9l39.6,20.2c1.7,0.8,2.8,2.5,2.9,4.4v0.1c-0.1,1.3-1.3,2.2-2.6,2.1c-0.3,0-0.6-0.1-0.9-0.3
				l-39.5-20.2c-1.3-0.6-2.1-1.9-2.2-3.3v-1.6c0.1-1,1-1.7,2-1.6C189.3,121.7,189.5,121.8,189.7,121.9z"/>
			<path class="st6" d="M189.7,131.3l39.6,20.2c1.7,0.8,2.8,2.5,2.9,4.4v0.1c-0.1,1.3-1.3,2.2-2.6,2.1c-0.3,0-0.7-0.1-0.9-0.3
				l-39.5-20.2c-1.3-0.6-2.1-1.9-2.2-3.3v-1.6c0.1-1,1-1.7,2-1.6C189.3,131.1,189.5,131.2,189.7,131.3z"/>
			<path class="st6" d="M189.7,141l39.6,20.2c1.7,0.8,2.9,2.5,2.9,4.4v0.1c0,1.6-1.9,2.6-3.5,1.8l-39.5-20.2
				c-1.3-0.6-2.1-1.9-2.2-3.3v-1.6c0.1-1,1-1.7,2-1.7C189.2,140.8,189.5,140.9,189.7,141z"/>
		</g>
		<g id="browser2">
			
				<linearGradient id="SVGID_00000070816913928095535720000010259550889435125435_" gradientUnits="userSpaceOnUse" x1="244.68" y1="1033.7021" x2="348" y2="1033.7021" gradientTransform="matrix(1 0 0 1 0 -905.67)">
				<stop  offset="0.52" style="stop-color:#21285A"/>
				<stop  offset="0.71" style="stop-color:#21295A;stop-opacity:0.61"/>
				<stop  offset="0.77" style="stop-color:#222D5E;stop-opacity:0.47"/>
				<stop  offset="0.82" style="stop-color:#233463;stop-opacity:0.37"/>
				<stop  offset="0.86" style="stop-color:#253E6B;stop-opacity:0.29"/>
				<stop  offset="0.89" style="stop-color:#274A77;stop-opacity:0.22"/>
				<stop  offset="0.92" style="stop-color:#2A5986;stop-opacity:0.16"/>
				<stop  offset="0.95" style="stop-color:#2E6D9A;stop-opacity:0.1"/>
				<stop  offset="0.97" style="stop-color:#2F85B5;stop-opacity:5.000000e-02"/>
				<stop  offset="1" style="stop-color:#2CA5D9;stop-opacity:1.000000e-02"/>
				<stop  offset="1" style="stop-color:#29ABE2;stop-opacity:0"/>
			</linearGradient>
			<path style="fill:url(#SVGID_00000070816913928095535720000010259550889435125435_);" d="M246.9,53.9l99.1,50.6
				c1.2,0.5,2,1.7,2,3v92c0,2.2-2.7,3.6-4.8,2.5l-95-48.5c-2.1-1-3.4-3-3.5-5.3v-93c0.1-0.8,0.9-1.4,1.7-1.3
				C246.6,53.8,246.7,53.8,246.9,53.9z"/>
			<path class="st9" d="M241,56l99.1,50.6c1.2,0.6,1.9,1.7,1.9,3v92c0,2.2-2.7,3.6-4.8,2.5l-95-48.5c-2.1-1-3.4-3.1-3.5-5.4v-93
				c0.1-0.8,0.8-1.5,1.7-1.4C240.6,55.8,240.8,55.9,241,56z"/>
			
				<linearGradient id="SVGID_00000158720652665853704460000007021167184162561980_" gradientUnits="userSpaceOnUse" x1="244.87" y1="1011.4235" x2="277.42" y2="1011.4235" gradientTransform="matrix(1 0 0 1 0 -905.67)">
				<stop  offset="6.000000e-02" style="stop-color:#28A8E0"/>
				<stop  offset="1" style="stop-color:#29ABE2;stop-opacity:0"/>
			</linearGradient>
			<path style="fill:url(#SVGID_00000158720652665853704460000007021167184162561980_);" d="M244.9,75.3v46.4c0,1.6,1,3,2.4,3.7
				l25.2,12.7c2.2,1.1,4.9-0.3,4.9-2.5V90.2c0-1.7-1-3.2-2.6-3.9l-26.1-13C247,72.5,244.9,73.6,244.9,75.3z"/>
			<path class="st11" d="M283.8,94.3l0.1,14.3c0,1.3,0.8,2.5,2,3.1l46,23.6c1.6,0.8,3.6-0.2,3.6-1.8v-13.8c0-1.4-0.9-2.8-2.2-3.4
				L287,92.7c-1-0.6-2.3-0.2-2.9,0.8C283.9,93.7,283.8,94,283.8,94.3z"/>
			<path class="st11" d="M286.7,118.9l46.7,23.9c1.3,0.6,2.1,1.8,2.1,3.2v1c-0.1,1.3-1.3,2.2-2.5,2c-0.3,0-0.6-0.1-0.9-0.3
				L285.7,125c-1.1-0.5-1.9-1.7-1.9-2.9v-1.7c0.2-1.1,1.2-1.9,2.3-1.7C286.3,118.7,286.5,118.8,286.7,118.9z"/>
			<path class="st12" d="M283.9,134v27.7c0,1.2,0.8,2.4,1.9,2.9l20.5,10.4c1.1,0.6,2.5,0.2,3.1-0.8c0.2-0.3,0.3-0.6,0.3-0.9v-27.1
				c-0.1-1.5-0.9-2.8-2.3-3.5L287,132.4c-1-0.6-2.3-0.2-2.9,0.8C284,133.4,283.9,133.7,283.9,134z"/>
			<path class="st13" d="M316.2,150.5v27.4c0,1.4,0.9,2.7,2.1,3.3l13.6,6.9c1.6,0.8,3.7-0.2,3.7-1.9v-26.4c-0.1-1.8-1.1-3.4-2.7-4.2
				l-13.4-6.8c-1.1-0.6-2.4-0.2-3,0.8C316.3,149.9,316.2,150.2,316.2,150.5z"/>
			<path class="st13" d="M258.8,137.4c-5.3-2.7-9.7-0.5-9.7,4.9s4.4,12,9.7,14.8c5.3,2.8,9.7,0.6,9.7-4.9S264.1,140.1,258.8,137.4z"
				/>
			<path class="st13" d="M238.7,61.2l103.3,53v-4.6c0-1.3-0.8-2.4-1.9-2.9L240.9,56c-0.7-0.4-1.6-0.2-2.1,0.6
				c-0.1,0.2-0.2,0.4-0.2,0.6V61.2L238.7,61.2z"/>
			<path class="st9" d="M243.2,58.8c-0.9-0.5-1.7-0.1-1.7,0.9c0.1,1.1,0.7,2.1,1.7,2.6c0.9,0.5,1.7,0.1,1.7-0.8
				C244.8,60.3,244.1,59.3,243.2,58.8z"/>
			<path class="st7" d="M248.6,61.6c-0.9-0.5-1.7-0.1-1.7,0.9c0.1,1.1,0.7,2.1,1.7,2.6c0.9,0.5,1.7,0.1,1.7-0.9
				C250.2,63.1,249.6,62.1,248.6,61.6z"/>
			<path class="st1" d="M254,64.2c-0.9-0.5-1.7-0.1-1.7,0.9c0.1,1.1,0.7,2.1,1.7,2.6c0.9,0.5,1.7,0.1,1.7-0.9
				C255.6,65.7,255,64.7,254,64.2z"/>
		</g>
		<g id="browser1">
			
				<linearGradient id="SVGID_00000134970674413027470130000003024981797769495170_" gradientUnits="userSpaceOnUse" x1="193.32" y1="983.972" x2="238.52" y2="983.972" gradientTransform="matrix(1 0 0 1 0 -905.67)">
				<stop  offset="0.52" style="stop-color:#21285A"/>
				<stop  offset="0.71" style="stop-color:#21295A;stop-opacity:0.61"/>
				<stop  offset="0.77" style="stop-color:#222D5E;stop-opacity:0.47"/>
				<stop  offset="0.82" style="stop-color:#233463;stop-opacity:0.37"/>
				<stop  offset="0.86" style="stop-color:#253E6B;stop-opacity:0.29"/>
				<stop  offset="0.89" style="stop-color:#274A77;stop-opacity:0.22"/>
				<stop  offset="0.92" style="stop-color:#2A5986;stop-opacity:0.16"/>
				<stop  offset="0.95" style="stop-color:#2E6D9A;stop-opacity:0.1"/>
				<stop  offset="0.97" style="stop-color:#2F85B5;stop-opacity:5.000000e-02"/>
				<stop  offset="1" style="stop-color:#2CA5D9;stop-opacity:1.000000e-02"/>
				<stop  offset="1" style="stop-color:#29ABE2;stop-opacity:0"/>
			</linearGradient>
			<path style="fill:url(#SVGID_00000134970674413027470130000003024981797769495170_);" d="M197.8,29.7L236,49.2
				c1.5,0.7,2.5,2.2,2.5,3.8v71.1c0,2.4-3,4-5.4,2.7l-37.5-19.1c-1.4-0.7-2.3-2.1-2.4-3.6V32C193.3,30,195.8,28.7,197.8,29.7z"/>
			<path class="st15" d="M191.5,30.7l38.2,19.5c1.5,0.7,2.5,2.2,2.5,3.8v71.1c0,2.4-3,4-5.4,2.7l-37.5-19.1
				c-1.4-0.7-2.3-2.1-2.4-3.6V33C187,31,189.5,29.7,191.5,30.7z"/>
			
				<linearGradient id="SVGID_00000145741263275170668630000008947468260470292405_" gradientUnits="userSpaceOnUse" x1="187.01" y1="985.034" x2="232.21" y2="985.034" gradientTransform="matrix(1 0 0 1 0 -905.67)">
				<stop  offset="0" style="stop-color:#21409A"/>
				<stop  offset="1" style="stop-color:#29ABE2;stop-opacity:0"/>
			</linearGradient>
			<path style="fill:url(#SVGID_00000145741263275170668630000008947468260470292405_);" d="M191.5,30.7l38.2,19.5
				c1.5,0.7,2.5,2.2,2.5,3.8v71.1c0,2.4-3,4-5.4,2.7l-37.5-19.1c-1.4-0.7-2.3-2.1-2.4-3.6V33C187,31,189.5,29.7,191.5,30.7z"/>
			<polygon class="st1" points="190.1,36.2 190.1,37.2 195.2,39.9 195.2,38.8 			"/>
			<polygon class="st1" points="190.1,38.1 190.1,39.2 195.2,41.8 195.2,40.8 			"/>
			<polygon class="st1" points="190.1,40.1 190.1,41.2 195.2,43.8 195.2,42.7 			"/>
			<polygon class="st1" points="228.9,62.9 228.9,61.8 197.2,45.7 197.2,46.8 			"/>
			<polygon class="st1" points="190.1,42.1 190.1,43.2 195.2,45.8 195.2,44.7 			"/>
			<polygon class="st1" points="190.1,44.1 190.1,45.1 195.2,47.8 195.2,46.7 			"/>
			<polygon class="st1" points="228.9,64.9 228.9,63.8 197.2,47.7 197.2,48.7 			"/>
			<polygon class="st1" points="190.1,50 190.1,51.1 195.2,53.7 195.2,52.6 			"/>
			<polygon class="st1" points="190.1,52 190.1,53 195.2,55.7 195.2,54.6 			"/>
			<polygon class="st1" points="190.1,59.8 190.1,60.9 195.2,63.5 195.2,62.5 			"/>
			<polygon class="st1" points="190.1,61.8 190.1,62.9 195.2,65.5 195.2,64.4 			"/>
			<polygon class="st1" points="217.2,75.6 197.2,65.4 197.2,66.5 217.2,76.7 			"/>
			<polygon class="st1" points="218.2,76.2 218.2,77.2 228.9,82.7 228.9,81.6 			"/>
			<polygon class="st1" points="207.2,68.6 197.2,63.5 197.2,64.5 207.2,69.7 			"/>
			<polygon class="st1" points="208.3,69.1 208.3,70.2 228.9,80.7 228.9,79.6 			"/>
			<polygon class="st1" points="226.1,72.3 226.1,73.4 228.9,74.8 228.9,73.7 			"/>
			<polygon class="st1" points="211.4,62.8 197.2,55.6 197.2,56.6 211.4,63.9 			"/>
			<polygon class="st1" points="205.6,44 197.2,39.8 197.2,40.8 205.6,45.1 			"/>
			<polygon class="st1" points="219.4,51.1 206.6,44.6 206.6,45.7 219.4,52.2 			"/>
			<polygon class="st1" points="211.9,49.3 203,44.7 203,45.8 211.9,50.3 			"/>
			<polygon class="st1" points="221.3,54.1 213,49.8 213,50.9 221.3,55.1 			"/>
			<polygon class="st1" points="222.4,54.6 222.4,55.7 228.9,59 228.9,57.9 			"/>
			<polygon class="st1" points="198.8,44.6 198.8,45.6 205.6,49.1 205.6,48 			"/>
			<polygon class="st1" points="226.2,58.5 206.6,48.5 206.6,49.6 226.2,59.6 			"/>
			<polygon class="st1" points="215,58.7 202.2,52.2 202.2,53.3 215,59.8 			"/>
			<polygon class="st1" points="226.2,64.4 216.1,59.3 216.1,60.3 226.2,65.5 			"/>
			<polygon class="st1" points="225.1,69.8 212.5,63.3 212.5,64.4 225.1,70.9 			"/>
			<polygon class="st1" points="218.2,68.3 218.2,69.3 225.1,72.8 225.1,71.8 			"/>
			<polygon class="st1" points="199.6,58.8 197.2,57.5 197.2,58.6 199.6,59.9 			"/>
			<polygon class="st1" points="204.3,61.2 204.3,62.2 217.2,68.8 217.2,67.7 			"/>
			<polygon class="st1" points="203.2,60.6 200.7,59.3 200.7,60.4 203.2,61.7 			"/>
			<polygon class="st1" points="214.8,68.5 200.7,61.3 200.7,62.4 214.8,69.6 			"/>
			<polygon class="st11" points="190.1,67.5 190.1,68.6 195.2,71.2 195.2,70.1 			"/>
			<polygon class="st11" points="190.1,69.5 190.1,70.5 195.2,73.2 195.2,72.1 			"/>
			<polygon class="st11" points="190.1,71.4 190.1,72.5 195.2,75.1 195.2,74.1 			"/>
			<polygon class="st11" points="228.9,94.2 228.9,93.2 197.2,77 197.2,78.1 			"/>
			<polygon class="st11" points="190.1,73.4 190.1,74.5 195.2,77.1 195.2,76 			"/>
			<polygon class="st11" points="190.1,75.4 190.1,76.5 195.2,79.1 195.2,78 			"/>
			<polygon class="st11" points="228.9,96.2 228.9,95.1 197.2,79 197.2,80.1 			"/>
			<polygon class="st11" points="190.1,81.3 190.1,82.4 195.2,85 195.2,83.9 			"/>
			<polygon class="st11" points="190.1,83.3 190.1,84.4 195.2,87 195.2,85.9 			"/>
			<polygon class="st11" points="190.1,91.2 190.1,92.2 195.2,94.9 195.2,93.8 			"/>
			<polygon class="st11" points="190.1,93.2 190.1,94.2 195.2,96.8 195.2,95.8 			"/>
			<polygon class="st11" points="217.2,106.9 197.2,96.8 197.2,97.8 217.2,108 			"/>
			<polygon class="st11" points="218.2,107.5 218.2,108.6 228.9,114 228.9,112.9 			"/>
			<polygon class="st11" points="207.2,99.9 197.2,94.8 197.2,95.8 207.2,101 			"/>
			<polygon class="st11" points="208.3,100.4 208.3,101.5 228.9,112 228.9,110.9 			"/>
			<polygon class="st11" points="226.1,103.6 226.1,104.7 228.9,106.1 228.9,105 			"/>
			<polygon class="st11" points="211.4,94.1 197.2,86.9 197.2,88 211.4,95.2 			"/>
			<polygon class="st11" points="205.6,75.4 197.2,71.1 197.2,72.2 205.6,76.4 			"/>
			<polygon class="st11" points="219.4,82.4 206.6,75.9 206.6,77 219.4,83.5 			"/>
			<polygon class="st11" points="211.9,80.6 203,76 203,77.1 211.9,81.7 			"/>
			<polygon class="st11" points="221.3,85.4 213,81.1 213,82.2 221.3,86.5 			"/>
			<polygon class="st11" points="222.4,85.9 222.4,87 228.9,90.3 228.9,89.2 			"/>
			<polygon class="st11" points="198.8,75.9 198.8,77 205.6,80.4 205.6,79.3 			"/>
			<polygon class="st11" points="226.2,89.8 206.6,79.9 206.6,80.9 226.2,90.9 			"/>
			<polygon class="st11" points="215,90.1 202.2,83.5 202.2,84.6 215,91.1 			"/>
			<polygon class="st11" points="226.2,95.8 216.1,90.6 216.1,91.7 226.2,96.8 			"/>
			<polygon class="st11" points="225.1,101.1 212.5,94.7 212.5,95.8 225.1,102.2 			"/>
			<polygon class="st11" points="218.2,99.6 218.2,100.7 225.1,104.2 225.1,103.1 			"/>
			<polygon class="st11" points="199.6,90.1 197.2,88.8 197.2,89.9 199.6,91.2 			"/>
			<polygon class="st11" points="204.3,92.5 204.3,93.6 217.2,100.1 217.2,99.1 			"/>
			<polygon class="st11" points="203.2,91.9 200.7,90.7 200.7,91.7 203.2,93 			"/>
			<polygon class="st11" points="214.8,99.8 200.7,92.6 200.7,93.7 214.8,100.9 			"/>
			<path class="st1" d="M198.9,102c-0.2,0.2-0.2,0.4-0.2,0.7v1.6c0,0.3-0.1,0.4-0.3,0.5c-0.3,0-0.6-0.1-0.9-0.3v1.1
				c0.3,0.2,0.6,0.4,0.9,0.6c0.2,0.2,0.3,0.5,0.3,0.8v1.5c0,0.3,0.1,0.6,0.2,0.9c0.1,0.3,0.4,0.5,0.6,0.7c0.4,0.3,0.7,0.5,1.2,0.7
				v-1c-0.2-0.1-0.5-0.3-0.6-0.5c-0.1-0.2-0.2-0.4-0.2-0.6v-1.5c-0.1-0.7-0.5-1.3-1.1-1.6l0,0c0.7,0.3,1.1,0.1,1.1-0.5v-1.4
				c0-0.2,0.1-0.4,0.2-0.4c0.1,0,0.3,0,0.6,0.2v-1c-0.4-0.2-0.7-0.4-1.1-0.4C199.3,101.9,199.1,101.9,198.9,102z"/>
			<path class="st1" d="M205.6,108.3c-0.2-0.2-0.3-0.5-0.3-0.8V106c0-0.5-0.1-0.9-0.4-1.3c-0.4-0.5-0.9-0.8-1.5-1.1v1
				c0.3,0.1,0.5,0.3,0.6,0.5c0.1,0.2,0.2,0.4,0.2,0.6v1.4c0.1,0.7,0.5,1.3,1.1,1.6v0.1c-0.2-0.1-0.5-0.1-0.8-0.1
				c-0.2,0.1-0.3,0.3-0.3,0.6v1.5c0,0.2-0.1,0.4-0.2,0.4c-0.2,0-0.5,0-0.6-0.2v1c0.5,0.3,1,0.5,1.5,0.5c0.3,0,0.4-0.3,0.4-0.8v-1.5
				c0-0.3,0.1-0.5,0.3-0.5c0.3,0,0.6,0.1,0.9,0.3v-1C206.1,108.8,205.8,108.6,205.6,108.3z"/>
			<path class="st1" d="M209.9,107.4c-0.1,0.2-0.2,0.4-0.2,0.7v1.6c0,0.3-0.1,0.4-0.3,0.5c-0.3,0-0.6-0.1-0.9-0.3v1.1
				c0.3,0.2,0.6,0.4,0.9,0.7c0.2,0.2,0.3,0.5,0.3,0.8v1.5c0,0.3,0.1,0.6,0.2,0.9c0.1,0.3,0.4,0.5,0.6,0.7c0.4,0.3,0.7,0.5,1.2,0.7
				v-1c-0.2-0.1-0.5-0.3-0.6-0.5c-0.1-0.2-0.2-0.4-0.2-0.6v-1.5c-0.1-0.7-0.5-1.3-1.1-1.6V111c0.7,0.3,1.1,0.1,1.1-0.5V109
				c0-0.2,0.1-0.4,0.2-0.4c0.1,0,0.3,0,0.6,0.2v-1c-0.4-0.2-0.7-0.4-1.1-0.4C210.3,107.2,210,107.3,209.9,107.4z"/>
			<path class="st1" d="M216.6,113.8c-0.2-0.2-0.3-0.5-0.3-0.8v-1.6c0-0.5-0.1-0.9-0.4-1.3c-0.4-0.5-0.9-0.8-1.5-1.1v1
				c0.3,0.1,0.5,0.3,0.6,0.5c0.1,0.2,0.2,0.4,0.2,0.6v1.4c0.1,0.7,0.5,1.3,1.1,1.6v0.1c-0.3-0.1-0.5-0.1-0.8-0.1
				c-0.2,0.1-0.3,0.3-0.3,0.6v1.5c0,0.2-0.1,0.4-0.2,0.4c-0.2,0-0.5,0-0.6-0.2v1c0.5,0.3,1,0.5,1.5,0.5c0.3,0,0.4-0.3,0.4-0.8v-1.5
				c0-0.3,0.1-0.5,0.3-0.5c0.3,0,0.6,0.1,0.9,0.3v-1C217.1,114.3,216.8,114.1,216.6,113.8z"/>
			<path class="st7" d="M190.9,32.9c0,0.5,0.3,0.9,0.8,1.2c0.4,0.2,0.8,0,0.8-0.4c0-0.5-0.3-0.9-0.8-1.2
				C191.2,32.3,190.9,32.4,190.9,32.9z"/>
			<path class="st7" d="M193.3,34.1c0,0.5,0.3,0.9,0.8,1.2c0.4,0.2,0.8,0,0.8-0.4c0-0.5-0.3-0.9-0.8-1.2
				C193.6,33.5,193.3,33.7,193.3,34.1z"/>
			<path class="st7" d="M196.5,34.9c-0.4-0.2-0.8,0-0.8,0.4c0,0.5,0.3,0.9,0.8,1.2c0.4,0.2,0.8,0,0.8-0.4
				C197.2,35.6,196.9,35.2,196.5,34.9z"/>
		</g>
		<g id="robot">
			<path class="st17" d="M104.7,225.7c-20.1-10.3-20.1-27.1,0-37.4s53-10.3,73.1,0s20.1,27.2,0,37.4S124.8,236,104.7,225.7z"/>
			<path class="st17" d="M191.6,194v-16.7l-15.4,1.7c-6.9-2.6-15.4-3.9-24.3-3.9v0.7c1.4,0,2.8,0,4.2,0.1c-6.3,0-12.5,0.3-18.8,1
				c4.8-0.7,9.7-1.1,14.6-1.1v-0.7l0,0c-14.6,0-30.6,3.4-43.2,9.9c-0.9,0.5-1.7,0.9-2.6,1.4l-16.6,1.8V208l0,0
				c0.3,5.4,3.9,10.4,11.1,14.1c7.5,3.9,17.7,5.8,28.6,5.8c14.6,0,30.6-3.4,43.2-9.9s19.1-14.8,19.1-22.4
				C191.6,195,191.6,194.5,191.6,194z M118.8,226.6c-2.3-0.3-4.5-0.7-6.6-1.1C114.5,226,116.7,226.3,118.8,226.6z M112,225.4
				l-0.3-0.1L112,225.4z"/>
			<path class="st15" d="M178.4,191.4c0,0-1.4-121.7-1.3-126.5c-6.2-1.2-62.2,35-73.9,34.7c-2.6,1.8,3.4,83.4-2.7,97.8
				C100.5,197.3,126.3,210.4,178.4,191.4z"/>
			
				<linearGradient id="SVGID_00000096758674978972597680000008924819414508256430_" gradientUnits="userSpaceOnUse" x1="90.11" y1="1033.045" x2="190.9117" y2="1033.045" gradientTransform="matrix(1 0 0 1 0 -905.67)">
				<stop  offset="6.000000e-02" style="stop-color:#28A8E0"/>
				<stop  offset="1" style="stop-color:#29ABE2;stop-opacity:0"/>
			</linearGradient>
			<path style="fill:url(#SVGID_00000096758674978972597680000008924819414508256430_);" d="M138.3,214.5c-2.7,0-5.5-0.1-9-0.2
				c-12.6-0.4-18.7-1.8-28.3-6.4c-6.9-3.3-10.7-8.4-10.8-14.2l0,0V72.4l0,0c0-3.8,1.7-8.6,4.7-12.9c3.6-5.2,8.5-9.4,14.1-12.2
				c12.5-6.5,28.7-7,42.9-7c9.9,0.1,19.6,2.6,28.3,7.1c2.6,1.3,5,3.1,7.1,5.2l-0.6,0.4c0.5,0.6,1,1.2,1.4,1.8l0.6-0.3
				c1.1,1.6,1.8,3.4,2.1,5.3v0.2V60c0.1,0.8,0.1,1.5,0.1,2.3v0.1v0.1v129.6l0,0c-0.2,7.3-6.1,12.8-18.7,17.2
				C162,212.9,151.9,214.5,138.3,214.5z"/>
			<path class="st19" d="M151.8,40.8c9.8,0.1,19.3,2.5,28,7c2.6,1.3,4.9,3,6.9,5.1l-0.6,0.4c0.5,0.6,1,1.2,1.4,1.8l0.6-0.3
				c1,1.5,1.7,3.2,2,5v0.1v0.2c0.1,0.7,0.1,1.5,0.1,2.2v0.3v0.1v128.6l0,0v0.9c-0.2,7.1-6,12.4-18.4,16.8
				c-10.1,3.6-20.2,5.1-33.7,5.1c-2.6,0-5.5-0.1-9-0.2c-12.5-0.4-18.6-1.8-28.1-6.3c-6.7-3.2-10.4-8.1-10.5-13.8l0,0V72.4l0,0
				c0-3.8,1.7-8.4,4.6-12.6c3.6-5.1,8.3-9.2,13.9-12c12.4-6.4,28.5-7,42.6-7l0,0 M151.7,39.7L151.7,39.7c-14.6,0-30.6,0.6-43.2,7.1
				s-19.1,18-19.1,25.6v-3.1V196v-2.4c0.1,5.6,3.6,11,11.1,14.7c9.8,4.7,16.2,6.1,28.6,6.5c3.1,0.1,6.1,0.2,9,0.2
				c11.9,0,22.6-1.1,34.2-5.2c13.2-4.7,18.9-10.4,19.1-17.7v-0.9c0,0.3,0,0.6,0,0.9v15.6V62.4v-0.1c0-0.8,0-1.6-0.1-2.3l0.1-0.3
				h-0.2c-0.8-4.9-4.4-9.3-11-12.7C171.4,42.3,161.6,39.8,151.7,39.7L151.7,39.7z M188.5,54.5c-0.4-0.6-0.9-1.2-1.4-1.8
				C187.6,53.2,188.1,53.9,188.5,54.5z"/>
			<g class="st20">
				
					<linearGradient id="SVGID_00000054225798884351982190000005683885550953873289_" gradientUnits="userSpaceOnUse" x1="98.08" y1="1044.6039" x2="140.6028" y2="1044.6039" gradientTransform="matrix(1 0 0 1 0 -905.67)">
					<stop  offset="0.42" style="stop-color:#FFFFFF"/>
					<stop  offset="1" style="stop-color:#2484C6;stop-opacity:0"/>
				</linearGradient>
				<path style="fill:url(#SVGID_00000054225798884351982190000005683885550953873289_);" d="M98.1,202.1V75.3c0,0,9-12.8,24.5-11.5
					c15.5,1.4,18,9.2,18,9.2v141.2c0,0,0.6-5.8-1.9-4.6c-7.6,3.6-24.2,9-34.4-6.4C102.7,201,99.2,205.2,98.1,202.1z"/>
			</g>
			<rect x="190.8" y="196.1" class="st17" width="0.8" height="15.1"/>
		</g>
		<g id="table">
			
				<linearGradient id="SVGID_00000070802705720877173790000015123208482817469844_" gradientUnits="userSpaceOnUse" x1="190.9" y1="1129.64" x2="236.58" y2="1129.64" gradientTransform="matrix(1 0 0 1 0 -905.67)">
				<stop  offset="6.000000e-02" style="stop-color:#28A8E0"/>
				<stop  offset="1" style="stop-color:#29ABE2;stop-opacity:0"/>
			</linearGradient>
			
				<rect x="190.9" y="202.4" style="fill:url(#SVGID_00000070802705720877173790000015123208482817469844_);" width="45.7" height="43.1"/>
			<ellipse class="st13" cx="213.7" cy="244.7" rx="22.9" ry="11.7"/>
			<ellipse class="st6" cx="213.7" cy="202.8" rx="22.9" ry="11.7"/>
			<polygon class="st17" points="210.5,191.3 210.5,190.2 210.5,191.2 210.5,192.3 			"/>
			<polygon class="st17" points="221.6,192.6 220.2,193.3 220.2,194.3 221.6,193.6 			"/>
			<polygon class="st17" points="204.5,193.3 203,192.6 203,193.6 204.5,194.3 			"/>
			<path class="st17" d="M207.7,196.8v-0.1l0.1-0.1c0,0,0-0.1,0-0.1l0.1-0.1l0.1-0.1c0,0,0.1-0.1,0.1-0.1l0.1-0.1l0.2-0.2l0.1-0.1
				l0.1-0.1l0.1-0.1c0.1,0,0.1-0.1,0.2-0.1l0.2-0.1l0.4-0.2l0.1-0.1l0.4-0.1h0.1l0.2-0.1l0.2-0.1h0.3h0.2c0.2,0,0.4-0.1,0.5-0.1h0.2
				h0.3h0.9h0.2h0.2h0.2h0.2h0.2l0.3,0.1h0.2c0.2,0,0.3,0.1,0.5,0.1c0.1,0,0.2,0.1,0.2,0.1h0.1l0.4,0.2c0.9,0.5,1.4,1.1,1.4,1.7v-1
				c0-0.6-0.5-1.2-1.4-1.7l-0.4-0.2h-0.1L215,194l0,0c-0.2-0.1-0.3-0.1-0.5-0.1l0,0h-0.1l-0.3-0.1H214h-0.1h-0.2h-0.1h-0.1h-0.2H212
				h-0.3h-0.2l-0.5,0.1l0,0h-0.2l-0.3,0.1h-0.2l-0.2,0.1l0,0H210l-0.4,0.1l-0.1,0.1l-0.4,0.2l0,0l-0.1,0.1l-0.2,0.1l-0.1,0.1
				l-0.1,0.1l0,0h-0.1l-0.2,0.2l-0.1,0.1l0,0c0,0-0.1,0.1-0.1,0.1v0.1l0,0c0,0-0.1,0.1-0.1,0.1c0,0,0,0,0,0.1l0,0c0,0,0,0.1,0,0.1
				v0.1l0,0c0,0,0,0.1,0,0.1s0,0.1,0,0.1v1c0,0,0-0.1,0-0.1C208,196.7,207.7,196.8,207.7,196.8z"/>
			<path class="st17" d="M221.6,197c0,0.1,0,0.1-0.1,0.2l-0.1,0.1l-0.1,0.1c0,0,0,0.1-0.1,0.1l-0.1,0.1l-0.1,0.1l-0.1,0.1
				c0,0-0.1,0.1-0.1,0.1l-0.1,0.1l-0.2,0.3l0,0l-0.2,0.2l-0.2,0.2v1l0.2-0.1l0,0l0.2-0.2l0,0l0.2-0.3l0,0l0.1-0.1
				c0,0,0.1-0.1,0.1-0.1c0,0,0.1-0.1,0.1-0.1l0.1-0.1l0,0v-0.1l0.1-0.1l0.1-0.1l0.1-0.1c0,0,0,0,0-0.1c0,0,0-0.1,0-0.1h2.1v-1
				L221.6,197z"/>
			<path class="st17" d="M204.6,199.7v-1c-0.6-0.4-1.1-1-1.4-1.7H201v1h2.1C203.4,198.7,203.9,199.3,204.6,199.7z"/>
			<path class="st17" d="M217.7,200.1l-0.8,0.2l-0.4,0.1l-0.4,0.1l-0.5,0.1l-0.4,0.1c-0.3,0.1-0.7,0.1-1,0.1v1l1-0.1l0,0l0.4-0.1
				l0.4-0.1l0.4-0.1c0.1,0,0.3-0.1,0.4-0.1l0,0l0.7-0.2l1.5,0.8l2.5-1.3v-1l-2.5,1.3L217.7,200.1z"/>
			<path class="st17" d="M210.6,200.8l-0.7-0.1l-0.5-0.1l-0.4-0.1l-0.6-0.1l-0.4-0.1h-0.2l-0.7-0.2l0,0l-1.5,0.8l-2.6-1.3v1l2.6,1.3
				l1.5-0.8l0.7,0.2l0.2,0.1l0.2,0.1h0.2l0.6,0.1h0.2h0.2l0.5,0.1h0.2l0.4,0.1l0,0v1.1h3.6v-1h-3.6L210.6,200.8z"/>
			<path class="st9" d="M219.2,200.8l-1.5-0.8c-1.1,0.4-2.3,0.6-3.5,0.7v1.1h-3.6v-1.1c-1.2-0.1-2.4-0.4-3.5-0.7l-1.5,0.8l-2.6-1.3
				l1.5-0.8c-0.6-0.4-1.1-1-1.5-1.7H201v-1.9h2.1c0.3-0.7,0.8-1.3,1.4-1.8l-1.5-0.8l2.5-1.3l1.5,0.8c1.1-0.4,2.3-0.6,3.5-0.7v-1.1
				h3.6v1.1c1.2,0.1,2.4,0.4,3.5,0.7l1.5-0.8l2.6,1.3l-1.5,0.8c0.6,0.4,1.1,1.1,1.4,1.8h2.1v1.9h-2.1c-0.3,0.7-0.8,1.3-1.4,1.8
				l1.5,0.8L219.2,200.8z M209,197.8c2.1,0.9,4.6,0.9,6.7,0c1.8-0.9,1.8-2.5,0-3.4c-2.1-0.9-4.6-0.9-6.7,0
				C207.2,195.3,207.2,196.8,209,197.8"/>
			<polygon class="st11" points="215,202.3 215,201.4 215,202.3 215,203.1 			"/>
			<polygon class="st11" points="224.1,203.4 222.9,204 222.9,204.8 224.1,204.2 			"/>
			<polygon class="st11" points="210.1,204 208.9,203.4 208.8,204.2 210.1,204.8 			"/>
			<path class="st11" d="M212.6,206.8C212.6,206.8,212.6,206.7,212.6,206.8v-0.2v-0.1l0.1-0.1c0,0,0-0.1,0.1-0.1l0.1-0.1l0.1-0.1
				l0.2-0.1l0.1-0.1l0.1-0.1l0.1-0.1l0.1-0.1l0.1-0.1l0.4-0.2h0.1l0.3-0.1h0.1l0.2-0.1h0.1h0.2h0.1l0.4-0.1h0.1h0.3h0.9h0.2h0.2h0.2
				h0.2l0.2,0.1h0.1c0.1,0,0.3,0.1,0.4,0.1l0.2,0.1h0.1l0.3,0.1c0.8,0.4,1.1,0.9,1.1,1.4v-0.8c0-0.5-0.4-1-1.1-1.4l-0.3-0.1h-0.1
				l-0.2-0.1l0,0c-0.1-0.1-0.3-0.1-0.4-0.1l0,0H218l-0.2-0.1h-0.1h-0.1h-0.2h-0.2h-0.2h-0.9h-0.3h-0.1l-0.4,0.1l0,0h-0.1H215h-0.1
				l-0.2,0.1h-0.1h-0.1l-0.3,0.1h-0.1c-0.1,0-0.2,0.1-0.4,0.2l0,0l-0.1,0.1l-0.1,0.1l-0.1,0.1l-0.1,0.1l0,0l0,0l-0.2,0.1l0,0l0,0
				l-0.1,0.1v0.1l0,0c0,0,0,0.1-0.1,0.1v0.1l0,0c0,0,0,0.1,0,0.1c0,0,0,0,0,0.1l0,0c0,0,0,0.1,0,0.1v1.1c0,0,0-0.1,0-0.1
				S212.6,206.8,212.6,206.8z"/>
			<path class="st11" d="M224.1,207l-0.1,0.1c0,0,0,0.1-0.1,0.1l-0.1,0.1l-0.1,0.1l-0.1,0.1c0,0-0.1,0.1-0.1,0.1l-0.1,0.1l-0.1,0.1
				l-0.1,0.1l-0.2,0.2l0,0l-0.2,0.2l-0.2,0.1v0.8l0.1-0.1l0,0l0.2-0.2l0,0l0.2-0.2l0,0v-0.1l0.1-0.1c0,0,0,0,0.1-0.1
				c0,0,0.1-0.1,0.1-0.1l0,0v-0.1l0.1-0.1c0,0,0-0.1,0.1-0.1V208l0,0c0,0,0-0.1,0-0.1h1.7V207H224.1z"/>
			<path class="st11" d="M210.1,209.2v-0.8c-0.5-0.4-0.9-0.8-1.2-1.4h-1.7v0.8h1.7C209.2,208.4,209.6,208.9,210.1,209.2z"/>
			<path class="st11" d="M220.8,209.5l-0.6,0.2c-0.1,0-0.2,0.1-0.4,0.1l-0.3,0.1l-0.4,0.1l-0.4,0.1l-0.8,0.1v0.8l0.8-0.1l0,0
				l0.3-0.1l0.4-0.1l0.3-0.1c0.1,0,0.2,0,0.4-0.1l0,0l0.6-0.2l1.2,0.6l2.1-1.1V209l-2,1.1L220.8,209.5z"/>
			<path class="st11" d="M215,210.1l-0.6-0.1l-0.4-0.1l-0.3-0.1l-0.5-0.1l-0.4-0.1l-0.2-0.1c-0.2,0-0.4-0.1-0.6-0.2l0,0l-1.2,0.6
				l-2.1-1.1v0.8l2.1,1.1l1.2-0.6l0.6,0.2h0.2l0.1,0.1h0.2l0.5,0.1h0.1h0.2l0.4,0.1h0.2h0.4l0,0v0.9h3V211h-3V210.1z"/>
			<path class="st9" d="M222,210.1l-1.2-0.6c-0.9,0.3-1.9,0.5-2.8,0.6v0.9h-3v-0.9c-1-0.1-1.9-0.3-2.8-0.6l-1.2,0.6l-2.1-1.1
				l1.2-0.6c-0.5-0.3-0.9-0.8-1.2-1.4h-1.7v-1.5h1.7c0.2-0.6,0.7-1.1,1.2-1.5l-1.2-0.6l2.1-1.1l1.2,0.6c0.9-0.3,1.9-0.5,2.8-0.6
				v-0.9h2.9v0.9c1,0.1,1.9,0.3,2.8,0.6l1.2-0.6l2.1,1.1l-1.2,0.6c0.5,0.4,0.9,0.9,1.2,1.5h1.7v1.5H224c-0.2,0.6-0.7,1.1-1.2,1.4
				l1.2,0.6L222,210.1z M213.7,207.6c1.7,0.8,3.7,0.8,5.5,0c1.5-0.8,1.5-2,0-2.8c-1.7-0.8-3.7-0.8-5.5,0
				C212.2,205.6,212.2,206.8,213.7,207.6"/>
		</g>
		<g id="cube">
			
				<linearGradient id="SVGID_00000072975594574266973560000004426083909595721915_" gradientUnits="userSpaceOnUse" x1="270.63" y1="1123.6787" x2="321.09" y2="1123.6787" gradientTransform="matrix(1 0 0 1 0 -905.67)">
				<stop  offset="0" style="stop-color:#21409A"/>
				<stop  offset="1" style="stop-color:#29ABE2;stop-opacity:0"/>
			</linearGradient>
			<path style="fill:url(#SVGID_00000072975594574266973560000004426083909595721915_);" d="M318.1,202.6l-35.9-18.3
				c-1.1-0.6-2.5-0.5-3.6,0.1l0,0l-7.9,4l3.7,4.4l1.4,1.4v31.5c0.1,2,1.2,3.7,3,4.5l26.9,13.8l0.3,1.3l5.5,6.8l8.4-4.4l0,0h0.1l0,0
				c0.8-0.4,1.3-1.1,1.3-2v-38.4C321,205.3,319.9,203.5,318.1,202.6z"/>
			
				<linearGradient id="SVGID_00000060750958442586802560000015312603611180021679_" gradientUnits="userSpaceOnUse" x1="269.29" y1="1125.9656" x2="312.74" y2="1125.9656" gradientTransform="matrix(1 0 0 1 0 -905.67)">
				<stop  offset="0" style="stop-color:#21409A"/>
				<stop  offset="1" style="stop-color:#29ABE2;stop-opacity:0"/>
			</linearGradient>
			<path style="fill:url(#SVGID_00000060750958442586802560000015312603611180021679_);" d="M309.7,207l-36.4-18.6
				c-1.8-0.9-4,0.2-4,2V229c0.1,2,1.2,3.7,3,4.6l36.4,18.6c1.8,0.9,4.1-0.2,4.1-2.1v-38.4C312.7,209.7,311.5,207.8,309.7,207z"/>
			
				<linearGradient id="SVGID_00000017485631253925103280000012983049772093323662_" gradientUnits="userSpaceOnUse" x1="311.29" y1="1157.77" x2="311.35" y2="1157.77" gradientTransform="matrix(1 0 0 1 0 -905.67)">
				<stop  offset="0" style="stop-color:#21409A"/>
				<stop  offset="1" style="stop-color:#29ABE2;stop-opacity:0"/>
			</linearGradient>
			<path style="fill:url(#SVGID_00000017485631253925103280000012983049772093323662_);" d="M311.4,252.1L311.4,252.1L311.4,252.1
				L311.4,252.1z"/>
			
				<linearGradient id="SVGID_00000085929044939693627700000015809129794124140467_" gradientUnits="userSpaceOnUse" x1="311.37" y1="1134.4351" x2="321.13" y2="1134.4351" gradientTransform="matrix(1 0 0 1 0 -905.67)">
				<stop  offset="0" style="stop-color:#21409A"/>
				<stop  offset="1" style="stop-color:#29ABE2;stop-opacity:0"/>
			</linearGradient>
			<path style="fill:url(#SVGID_00000085929044939693627700000015809129794124140467_);" d="M312.7,250v-38.3c0-0.6-0.2-1.3-0.4-1.9
				l8.4-4.3c0.2,0.6,0.4,1.2,0.4,1.8v38.3c0,0.9-0.5,1.6-1.3,2l0,0h-0.1l0,0l-8.4,4.4C312.2,251.6,312.7,250.9,312.7,250z"/>
			
				<linearGradient id="SVGID_00000085955930352984076400000007614326465881784505_" gradientUnits="userSpaceOnUse" x1="279.06" y1="1143.6801" x2="328.0999" y2="1143.6801" gradientTransform="matrix(1 0 0 1 0 -905.67)">
				<stop  offset="6.000000e-02" style="stop-color:#28A8E0"/>
				<stop  offset="1" style="stop-color:#29ABE2;stop-opacity:0"/>
			</linearGradient>
			<path style="fill:url(#SVGID_00000085955930352984076400000007614326465881784505_);" d="M313.9,265.2l-0.3-1.5l-27.1-13.9
				c-1.6-0.8-2.6-2.3-2.7-4.1v-31.7l-1.5-1.5l-3.3-3.9l7-3.6l0,0l0.3-0.2c0.5-0.3,1.1-0.4,1.6-0.4c0.5,0,0.9,0.1,1.3,0.3l36,18.3
				c1.6,0.8,2.7,2.4,2.8,4.2v38.3c0,0.7-0.4,1.3-1,1.6l-0.1,0l-8,4.1L313.9,265.2z"/>
			<path class="st19" d="M288,205c0.3,0,0.7,0.1,1,0.3l36,18.4c1.5,0.7,2.4,2.2,2.5,3.8v38.3c0,0.5-0.3,0.9-0.7,1.2h-0.1l0,0
				l-7.5,3.9l-4.7-5.8l-0.2-1.1l-0.1-0.5l-0.5-0.2l-26.9-13.8c-1.4-0.7-2.3-2.1-2.4-3.6v-31.8l-0.3-0.3l-1.3-1.4l-2.9-3.4l5.9-3l0,0
				l0.9-0.5C287.1,205.2,287.5,205,288,205 M288,203.9c-0.7,0-1.4,0.2-2,0.5l0,0l-7.9,4l3.7,4.4l1.4,1.4v31.5c0.1,2,1.2,3.7,3,4.5
				L313,264l0.3,1.3l5.5,6.8l8.4-4.4l0,0h0.1l0,0c0.8-0.4,1.3-1.1,1.3-2v-38.4c-0.1-2-1.2-3.8-3.1-4.7l-35.9-18.3
				C289.1,204.1,288.6,204,288,203.9L288,203.9z"/>
			
				<linearGradient id="SVGID_00000154386960185377456300000018162531590916782250_" gradientUnits="userSpaceOnUse" x1="277.45" y1="1146.0391" x2="319.67" y2="1146.0391" gradientTransform="matrix(1 0 0 1 0 -905.67)">
				<stop  offset="6.000000e-02" style="stop-color:#28A8E0"/>
				<stop  offset="1" style="stop-color:#29ABE2;stop-opacity:0"/>
			</linearGradient>
			<path style="fill:url(#SVGID_00000154386960185377456300000018162531590916782250_);" d="M317.5,272c-0.4,0-0.7-0.1-1.1-0.3
				l-36.4-18.6c-1.6-0.8-2.6-2.3-2.7-4.1v-38.5c0.1-1.1,1-1.9,2.1-1.8c0.3,0,0.7,0.1,1,0.2l36.4,18.6c1.6,0.8,2.7,2.4,2.8,4.2v38.3
				c0,0.5-0.2,1-0.6,1.4C318.6,271.8,318.1,272,317.5,272L317.5,272z"/>
			<path class="st19" d="M279.5,209.3c0.3,0,0.5,0.1,0.7,0.2l36.4,18.6c1.5,0.7,2.4,2.2,2.5,3.8v38.3c-0.1,0.8-0.7,1.4-1.5,1.4
				c-0.3,0-0.5-0.1-0.8-0.2l-36.4-18.6c-1.4-0.7-2.3-2.1-2.4-3.6v-38.5C278.1,209.8,278.8,209.2,279.5,209.3 M279.5,208.3
				c-1.4-0.1-2.6,1-2.7,2.4v38.5c0.1,2,1.2,3.7,3,4.6l36.4,18.6c0.4,0.2,0.9,0.3,1.4,0.3c1.4,0.1,2.6-1,2.7-2.4v-38.4
				c0-2-1.2-3.8-3.1-4.7l-36.4-18.6C280.5,208.3,280,208.2,279.5,208.3L279.5,208.3z"/>
			
				<linearGradient id="SVGID_00000173852184189770055190000010041112359649294493_" gradientUnits="userSpaceOnUse" x1="318.85" y1="1177.87" x2="318.91" y2="1177.87" gradientTransform="matrix(1 0 0 1 0 -905.67)">
				<stop  offset="6.000000e-02" style="stop-color:#28A8E0"/>
				<stop  offset="1" style="stop-color:#29ABE2;stop-opacity:0"/>
			</linearGradient>
			<path style="fill:url(#SVGID_00000173852184189770055190000010041112359649294493_);" d="M318.9,272.2L318.9,272.2L318.9,272.2
				L318.9,272.2z"/>
			<path class="st19" d="M318.9,272.2L318.9,272.2L318.9,272.2L318.9,272.2L318.9,272.2z"/>
			
				<linearGradient id="SVGID_00000067209632473239542180000018034920633648595604_" gradientUnits="userSpaceOnUse" x1="320.59" y1="1154.175" x2="328.0999" y2="1154.175" gradientTransform="matrix(1 0 0 1 0 -905.67)">
				<stop  offset="6.000000e-02" style="stop-color:#28A8E0"/>
				<stop  offset="1" style="stop-color:#29ABE2;stop-opacity:0"/>
			</linearGradient>
			<path style="fill:url(#SVGID_00000067209632473239542180000018034920633648595604_);" d="M320.8,270.6c0-0.2,0-0.3,0-0.5v-38.3
				c0-0.5-0.1-1.1-0.3-1.6l7.4-3.8c0.1,0.3,0.1,0.7,0.1,1v38.3c0,0.7-0.4,1.3-1,1.6l-0.1,0.1L320.8,270.6z"/>
			<path class="st19" d="M327.5,227.2c0,0.1,0,0.1,0,0.2v38.3c0,0.5-0.3,0.9-0.7,1.2h-0.1l-5.2,2.7v-37.8c0-0.5-0.1-0.9-0.2-1.4
				L327.5,227.2 M328.3,225.6l-8.4,4.3c0.3,0.6,0.4,1.2,0.4,1.9v38.3c0,0.9-0.5,1.7-1.3,2.1l8.4-4.3l0,0h0.1l0,0
				c0.8-0.4,1.3-1.1,1.3-2v-38.4C328.6,226.8,328.5,226.2,328.3,225.6L328.3,225.6z M319,272.2L319,272.2z"/>
			<polygon class="st9" points="313.7,242 300.5,235.2 300.5,235.8 313.7,242.6 			"/>
			<polygon class="st9" points="300.5,237 320.7,247.3 320.7,246.7 300.5,236.4 			"/>
			<polygon class="st9" points="314.5,243 320.7,246.1 320.7,245.6 314.5,242.4 			"/>
			<polygon class="st9" points="313.7,244.2 300.5,237.5 300.5,238.1 313.7,244.8 			"/>
			<polygon class="st9" points="300.5,239.3 320.7,249.6 320.7,249 300.5,238.7 			"/>
			<polygon class="st9" points="314.5,245.3 320.7,248.4 320.7,247.8 314.5,244.7 			"/>
			<polygon class="st9" points="313.7,247.5 300.5,240.8 300.5,241.4 313.7,248.1 			"/>
			<polygon class="st9" points="300.5,242.5 320.7,252.9 320.7,252.2 300.5,241.9 			"/>
			<polygon class="st9" points="314.5,248.5 320.7,251.7 320.7,251.1 314.5,247.9 			"/>
			<polygon class="st9" points="313.7,249.8 300.5,243.1 300.5,243.6 313.7,250.4 			"/>
			<polygon class="st9" points="300.5,244.8 320.7,255.1 320.7,254.5 300.5,244.2 			"/>
			<polygon class="st9" points="314.5,250.8 320.7,253.9 320.7,253.4 314.5,250.2 			"/>
			<polygon class="st9" points="313.7,253.1 300.5,246.3 300.5,246.9 313.7,253.6 			"/>
			<polygon class="st9" points="300.5,248.1 320.7,258.4 320.7,257.8 300.5,247.5 			"/>
			<polygon class="st9" points="314.5,254.1 320.7,257.2 320.7,256.6 314.5,253.5 			"/>
			<polygon class="st9" points="313.7,255.3 300.5,248.6 300.5,249.2 313.7,255.9 			"/>
			<polygon class="st9" points="300.5,250.3 320.7,260.6 320.7,260 300.5,249.8 			"/>
			<polygon class="st9" points="314.5,256.3 320.7,259.5 320.7,258.9 314.5,255.8 			"/>
			<polygon class="st9" points="313.7,258.6 300.5,251.9 300.5,252.4 313.7,259.2 			"/>
			<polygon class="st9" points="300.5,253.6 320.7,263.9 320.7,263.3 300.5,253 			"/>
			<polygon class="st9" points="314.5,259.6 320.7,262.8 320.7,262.2 314.5,259 			"/>
			<polygon class="st9" points="313.7,260.9 300.5,254.1 300.5,254.7 313.7,261.4 			"/>
			<polygon class="st9" points="300.5,255.9 320.7,266.2 320.7,265.6 300.5,255.3 			"/>
			<polygon class="st9" points="314.5,261.9 320.7,265 320.7,264.4 314.5,261.3 			"/>
		</g>
		<g id="dashline1">
			<g class="st2">
				<path class="st1" d="M279.5,270l-68.1,34.7c-2.6,1.3-5.8-0.3-5.8-3v-18.6c0-1.3,0.8-2.5,1.9-3l68-34.6c2.6-1.3,5.8,0.3,5.8,3
					v18.6C281.4,268.3,280.6,269.5,279.5,270z"/>
			</g>
			<g class="st2">
				<path class="st1" d="M363.6,241.3L295.6,276c-2.6,1.3-5.8-0.3-5.8-3v-18.6c0-1.3,0.8-2.5,1.9-3l68.1-34.6c2.6-1.3,5.8,0.3,5.8,3
					v18.6C365.5,239.6,364.8,240.8,363.6,241.3z"/>
			</g>
			<g class="st2">
				<path class="st1" d="M370,203.7l-68.1,34.7c-2.6,1.3-5.8-0.3-5.8-3v-18.6c0-1.3,0.8-2.5,1.9-3l68.1-34.7c2.6-1.3,5.8,0.3,5.8,3
					v18.6C371.9,202.1,371.2,203.2,370,203.7z"/>
			</g>
		</g>
	</g>
</g>
</svg>
